<?xml version="1.0" encoding="utf-8"?>
<svg fill="#000000" height="800px" width="800px" version="1.1" id="Capa_1" viewBox="0 0 511 511" xmlns="http://www.w3.org/2000/svg" xmlns:bx="https://boxy-svg.com" style="filter: invert(1)">
  <defs/>
  <path d="M 519.58 98.351 L 441.951 98.351 L 441.951 97.602 C 441.951 82.108 434.766 68.928 424.818 64.222 L 424.818 49.629 C 424.818 43.419 421.222 38.385 416.788 38.385 C 412.352 38.385 408.757 43.419 408.757 49.629 L 408.757 64.222 C 398.81 68.927 391.625 82.107 391.625 97.602 L 391.625 98.351 L 313.996 98.351 C 309.561 98.351 305.966 103.385 305.966 109.595 C 305.966 115.805 309.561 120.838 313.996 120.838 L 408.757 120.838 L 408.757 136.18 C 398.81 140.886 391.625 154.065 391.625 169.562 L 391.625 182.305 L 372.45 182.305 C 368.837 161.677 355.525 146.326 339.694 146.326 L 168.375 146.326 C 152.544 146.326 139.233 161.677 135.619 182.305 L 116.444 182.305 L 116.444 169.562 C 116.444 154.069 109.259 140.887 99.311 136.18 L 99.311 120.838 L 194.073 120.838 C 198.508 120.838 202.103 115.805 202.103 109.595 C 202.103 103.385 198.508 98.351 194.073 98.351 L 116.444 98.351 L 116.444 97.602 C 116.444 82.108 109.259 68.928 99.311 64.222 L 99.311 49.629 C 99.311 43.419 95.716 38.385 91.281 38.385 C 86.847 38.385 83.251 43.419 83.251 49.629 L 83.251 64.222 C 73.303 68.927 66.118 82.107 66.118 97.602 L 66.118 98.351 L -11.511 98.351 C -15.945 98.351 -19.541 103.385 -19.541 109.595 C -19.541 115.805 -15.945 120.838 -11.511 120.838 L 83.251 120.838 L 83.251 136.18 C 73.303 140.886 66.118 154.065 66.118 169.562 L 66.118 193.548 C 66.118 212.974 77.406 228.778 91.281 228.778 C 102.348 228.778 111.762 218.719 115.122 204.791 L 135.62 204.791 C 139.226 225.375 152.487 240.702 168.272 240.769 C 166.502 244.804 341.568 244.806 339.798 240.769 C 355.583 240.702 368.844 225.375 372.45 204.791 L 392.948 204.791 C 396.308 218.719 405.721 228.778 416.789 228.778 C 430.664 228.778 441.952 212.974 441.952 193.548 L 441.952 169.562 C 441.952 154.069 434.767 140.887 424.819 136.18 L 424.819 120.838 L 519.581 120.838 C 524.015 120.838 527.611 115.805 527.611 109.595 C 527.611 103.385 524.014 98.351 519.58 98.351 Z M 82.18 97.602 C 82.18 90.574 86.263 84.859 91.281 84.859 C 96.299 84.859 100.383 90.574 100.383 97.602 L 100.383 98.351 L 82.18 98.351 L 82.18 97.602 Z M 91.281 206.291 C 86.263 206.291 82.18 200.576 82.18 193.548 L 82.18 169.562 C 82.18 162.534 86.263 156.819 91.281 156.819 C 96.299 156.819 100.383 162.534 100.383 169.562 L 100.383 193.548 C 100.383 200.576 96.299 206.291 91.281 206.291 Z M 339.694 218.284 L 168.375 218.284 C 158.633 218.284 150.707 207.188 150.707 193.548 C 150.707 179.909 158.633 168.812 168.375 168.812 L 339.694 168.812 C 349.436 168.812 357.362 179.909 357.362 193.548 C 357.362 207.188 349.436 218.284 339.694 218.284 Z M 425.889 193.548 C 425.889 200.576 421.806 206.291 416.788 206.291 C 411.77 206.291 407.686 200.576 407.686 193.548 L 407.686 169.562 C 407.686 162.534 411.77 156.819 416.788 156.819 C 421.806 156.819 425.889 162.534 425.889 169.562 L 425.889 193.548 Z M 407.686 97.602 C 407.686 90.574 411.77 84.859 416.788 84.859 C 421.806 84.859 425.889 90.574 425.889 97.602 L 425.889 98.351 L 407.686 98.351 L 407.686 97.602 Z" style="stroke: rgb(0, 0, 0); stroke-miterlimit: 4.83; stroke-width: 11px;"/>
  <path d="M 287.616 851.058 H 402.609 L 383.307 742.021 L 515.358 905.069 L 383.307 1068.117 L 402.609 959.081 H 287.616 V 851.058 Z" style="stroke: rgb(0, 0, 0);" transform="matrix(-0.001363, -0.999999, 1.000023, 0.016221, -650.353149, 777.183533)" bx:shape="arrow 287.616 742.021 227.742 326.096 108.023 132.051 19.302 1@126937d2"/>
</svg>
